<mxfile host="app.diagrams.net" agent="Mozilla/5.0 (Windows NT 10.0; Win64; x64) AppleWebKit/537.36 (KHTML, like Gecko) Chrome/127.0.0.0 Safari/537.36" version="24.7.6">
  <diagram id="ZyCm4KJZJEG69H7Xtfmh" name="Page-1">
    <mxGraphModel dx="1235" dy="655" grid="1" gridSize="10" guides="1" tooltips="1" connect="1" arrows="1" fold="1" page="1" pageScale="1" pageWidth="850" pageHeight="1100" math="0" shadow="0">
      <root>
        <mxCell id="0" />
        <mxCell id="1" parent="0" />
        <mxCell id="OtpFn1KiQu8fELlNu37M-1" value="" style="edgeStyle=none;rounded=0;jumpStyle=none;html=1;shadow=0;labelBackgroundColor=none;startArrow=none;startFill=0;endArrow=classic;endFill=1;jettySize=auto;orthogonalLoop=1;strokeColor=#2F5B7C;strokeWidth=3;fontFamily=Helvetica;fontSize=16;fontColor=#23445D;spacing=5;" edge="1" parent="1" source="OtpFn1KiQu8fELlNu37M-5" target="OtpFn1KiQu8fELlNu37M-20">
          <mxGeometry relative="1" as="geometry" />
        </mxCell>
        <mxCell id="OtpFn1KiQu8fELlNu37M-2" value="" style="edgeStyle=none;rounded=0;jumpStyle=none;html=1;shadow=0;labelBackgroundColor=none;startArrow=none;startFill=0;endArrow=classic;endFill=1;jettySize=auto;orthogonalLoop=1;strokeColor=#2F5B7C;strokeWidth=3;fontFamily=Helvetica;fontSize=16;fontColor=#23445D;spacing=5;" edge="1" parent="1" source="OtpFn1KiQu8fELlNu37M-5" target="OtpFn1KiQu8fELlNu37M-27">
          <mxGeometry relative="1" as="geometry" />
        </mxCell>
        <mxCell id="OtpFn1KiQu8fELlNu37M-3" value="" style="edgeStyle=none;rounded=0;jumpStyle=none;html=1;shadow=0;labelBackgroundColor=none;startArrow=none;startFill=0;endArrow=classic;endFill=1;jettySize=auto;orthogonalLoop=1;strokeColor=#2F5B7C;strokeWidth=3;fontFamily=Helvetica;fontSize=16;fontColor=#23445D;spacing=5;" edge="1" parent="1" source="OtpFn1KiQu8fELlNu37M-5" target="OtpFn1KiQu8fELlNu37M-16">
          <mxGeometry relative="1" as="geometry" />
        </mxCell>
        <mxCell id="OtpFn1KiQu8fELlNu37M-4" value="" style="edgeStyle=none;rounded=0;jumpStyle=none;html=1;shadow=0;labelBackgroundColor=none;startArrow=none;startFill=0;endArrow=classic;endFill=1;jettySize=auto;orthogonalLoop=1;strokeColor=#2F5B7C;strokeWidth=3;fontFamily=Helvetica;fontSize=16;fontColor=#23445D;spacing=5;" edge="1" parent="1" source="OtpFn1KiQu8fELlNu37M-5" target="OtpFn1KiQu8fELlNu37M-9">
          <mxGeometry relative="1" as="geometry" />
        </mxCell>
        <mxCell id="OtpFn1KiQu8fELlNu37M-5" value="Car Services System" style="rounded=1;whiteSpace=wrap;html=1;shadow=0;labelBackgroundColor=none;strokeColor=none;strokeWidth=3;fillColor=#2F5B7C;fontFamily=Helvetica;fontSize=16;fontColor=#FFFFFF;align=center;fontStyle=1;spacing=5;arcSize=7;perimeterSpacing=2;" vertex="1" parent="1">
          <mxGeometry x="591" y="460" width="150" height="70" as="geometry" />
        </mxCell>
        <mxCell id="OtpFn1KiQu8fELlNu37M-6" value="" style="edgeStyle=none;rounded=1;jumpStyle=none;html=1;shadow=0;labelBackgroundColor=none;startArrow=none;startFill=0;jettySize=auto;orthogonalLoop=1;strokeColor=#E85642;strokeWidth=3;fontFamily=Helvetica;fontSize=14;fontColor=#FFFFFF;spacing=5;fontStyle=1;fillColor=#b0e3e6;" edge="1" parent="1" source="OtpFn1KiQu8fELlNu37M-9" target="OtpFn1KiQu8fELlNu37M-12">
          <mxGeometry relative="1" as="geometry" />
        </mxCell>
        <mxCell id="OtpFn1KiQu8fELlNu37M-7" value="" style="edgeStyle=none;rounded=1;jumpStyle=none;html=1;shadow=0;labelBackgroundColor=none;startArrow=none;startFill=0;jettySize=auto;orthogonalLoop=1;strokeColor=#E85642;strokeWidth=3;fontFamily=Helvetica;fontSize=14;fontColor=#FFFFFF;spacing=5;fontStyle=1;fillColor=#b0e3e6;" edge="1" parent="1" source="OtpFn1KiQu8fELlNu37M-9" target="OtpFn1KiQu8fELlNu37M-11">
          <mxGeometry relative="1" as="geometry" />
        </mxCell>
        <mxCell id="OtpFn1KiQu8fELlNu37M-8" value="" style="edgeStyle=none;rounded=1;jumpStyle=none;html=1;shadow=0;labelBackgroundColor=none;startArrow=none;startFill=0;jettySize=auto;orthogonalLoop=1;strokeColor=#E85642;strokeWidth=3;fontFamily=Helvetica;fontSize=14;fontColor=#FFFFFF;spacing=5;fontStyle=1;fillColor=#b0e3e6;" edge="1" parent="1" source="OtpFn1KiQu8fELlNu37M-9" target="OtpFn1KiQu8fELlNu37M-10">
          <mxGeometry relative="1" as="geometry" />
        </mxCell>
        <mxCell id="OtpFn1KiQu8fELlNu37M-9" value="Embassy" style="rounded=1;whiteSpace=wrap;html=1;shadow=0;labelBackgroundColor=none;strokeColor=none;strokeWidth=3;fillColor=#e85642;fontFamily=Helvetica;fontSize=14;fontColor=#FFFFFF;align=center;spacing=5;fontStyle=1;arcSize=7;perimeterSpacing=2;" vertex="1" parent="1">
          <mxGeometry x="311" y="465" width="150" height="60" as="geometry" />
        </mxCell>
        <mxCell id="OtpFn1KiQu8fELlNu37M-10" value="Theories" style="rounded=1;whiteSpace=wrap;html=1;shadow=0;labelBackgroundColor=none;strokeColor=none;strokeWidth=3;fillColor=#f08e81;fontFamily=Helvetica;fontSize=14;fontColor=#FFFFFF;align=center;spacing=5;fontStyle=0;arcSize=7;perimeterSpacing=2;" vertex="1" parent="1">
          <mxGeometry x="161" y="584" width="150" height="60" as="geometry" />
        </mxCell>
        <mxCell id="OtpFn1KiQu8fELlNu37M-11" value="Appeal" style="rounded=1;whiteSpace=wrap;html=1;shadow=0;labelBackgroundColor=none;strokeColor=none;strokeWidth=3;fillColor=#f08e81;fontFamily=Helvetica;fontSize=14;fontColor=#FFFFFF;align=center;spacing=5;fontStyle=0;arcSize=7;perimeterSpacing=2;" vertex="1" parent="1">
          <mxGeometry x="110" y="465" width="150" height="60" as="geometry" />
        </mxCell>
        <mxCell id="OtpFn1KiQu8fELlNu37M-12" value="Layout" style="rounded=1;whiteSpace=wrap;html=1;shadow=0;labelBackgroundColor=none;strokeColor=none;strokeWidth=3;fillColor=#f08e81;fontFamily=Helvetica;fontSize=14;fontColor=#FFFFFF;align=center;spacing=5;fontStyle=0;arcSize=7;perimeterSpacing=2;" vertex="1" parent="1">
          <mxGeometry x="161" y="334" width="150" height="60" as="geometry" />
        </mxCell>
        <mxCell id="OtpFn1KiQu8fELlNu37M-13" value="" style="edgeStyle=none;rounded=0;jumpStyle=none;html=1;shadow=0;labelBackgroundColor=none;startArrow=none;startFill=0;endArrow=classic;endFill=1;jettySize=auto;orthogonalLoop=1;strokeColor=#1699D3;strokeWidth=3;fontFamily=Helvetica;fontSize=14;fontColor=#FFFFFF;spacing=5;" edge="1" parent="1" source="OtpFn1KiQu8fELlNu37M-16" target="OtpFn1KiQu8fELlNu37M-19">
          <mxGeometry relative="1" as="geometry" />
        </mxCell>
        <mxCell id="OtpFn1KiQu8fELlNu37M-14" value="" style="edgeStyle=none;rounded=0;jumpStyle=none;html=1;shadow=0;labelBackgroundColor=none;startArrow=none;startFill=0;endArrow=classic;endFill=1;jettySize=auto;orthogonalLoop=1;strokeColor=#1699D3;strokeWidth=3;fontFamily=Helvetica;fontSize=14;fontColor=#FFFFFF;spacing=5;" edge="1" parent="1" source="OtpFn1KiQu8fELlNu37M-16" target="OtpFn1KiQu8fELlNu37M-18">
          <mxGeometry relative="1" as="geometry" />
        </mxCell>
        <mxCell id="OtpFn1KiQu8fELlNu37M-15" value="" style="edgeStyle=none;rounded=0;jumpStyle=none;html=1;shadow=0;labelBackgroundColor=none;startArrow=none;startFill=0;endArrow=classic;endFill=1;jettySize=auto;orthogonalLoop=1;strokeColor=#1699D3;strokeWidth=3;fontFamily=Helvetica;fontSize=14;fontColor=#FFFFFF;spacing=5;" edge="1" parent="1" source="OtpFn1KiQu8fELlNu37M-16" target="OtpFn1KiQu8fELlNu37M-17">
          <mxGeometry relative="1" as="geometry" />
        </mxCell>
        <mxCell id="OtpFn1KiQu8fELlNu37M-16" value="Organization" style="rounded=1;whiteSpace=wrap;html=1;shadow=0;labelBackgroundColor=none;strokeColor=none;strokeWidth=3;fillColor=#1699d3;fontFamily=Helvetica;fontSize=14;fontColor=#FFFFFF;align=center;spacing=5;fontStyle=1;arcSize=7;perimeterSpacing=2;" vertex="1" parent="1">
          <mxGeometry x="591" y="650" width="150" height="60" as="geometry" />
        </mxCell>
        <mxCell id="OtpFn1KiQu8fELlNu37M-17" value="Content" style="rounded=1;whiteSpace=wrap;html=1;shadow=0;labelBackgroundColor=none;strokeColor=none;strokeWidth=3;fillColor=#64bbe2;fontFamily=Helvetica;fontSize=14;fontColor=#FFFFFF;align=center;spacing=5;arcSize=7;perimeterSpacing=2;" vertex="1" parent="1">
          <mxGeometry x="791" y="730" width="150" height="60" as="geometry" />
        </mxCell>
        <mxCell id="OtpFn1KiQu8fELlNu37M-18" value="Budget" style="rounded=1;whiteSpace=wrap;html=1;shadow=0;labelBackgroundColor=none;strokeColor=none;strokeWidth=3;fillColor=#64bbe2;fontFamily=Helvetica;fontSize=14;fontColor=#FFFFFF;align=center;spacing=5;arcSize=7;perimeterSpacing=2;" vertex="1" parent="1">
          <mxGeometry x="591" y="796" width="150" height="60" as="geometry" />
        </mxCell>
        <mxCell id="OtpFn1KiQu8fELlNu37M-19" value="Analysis" style="rounded=1;whiteSpace=wrap;html=1;shadow=0;labelBackgroundColor=none;strokeColor=none;strokeWidth=3;fillColor=#64bbe2;fontFamily=Helvetica;fontSize=14;fontColor=#FFFFFF;align=center;spacing=5;arcSize=7;perimeterSpacing=2;" vertex="1" parent="1">
          <mxGeometry x="391" y="730" width="150" height="60" as="geometry" />
        </mxCell>
        <mxCell id="OtpFn1KiQu8fELlNu37M-20" value="Marketing" style="rounded=1;whiteSpace=wrap;html=1;shadow=0;labelBackgroundColor=none;strokeColor=none;strokeWidth=3;fillColor=#F08705;fontFamily=Helvetica;fontSize=14;fontColor=#FFFFFF;align=center;spacing=5;fontStyle=1;arcSize=7;perimeterSpacing=2;" vertex="1" parent="1">
          <mxGeometry x="591" y="280" width="150" height="60" as="geometry" />
        </mxCell>
        <mxCell id="OtpFn1KiQu8fELlNu37M-21" value="Aims&lt;br&gt;" style="rounded=1;whiteSpace=wrap;html=1;shadow=0;labelBackgroundColor=none;strokeColor=none;strokeWidth=3;fillColor=#f5af58;fontFamily=Helvetica;fontSize=14;fontColor=#FFFFFF;align=center;spacing=5;arcSize=7;perimeterSpacing=2;" vertex="1" parent="1">
          <mxGeometry x="791" y="190" width="150" height="60" as="geometry" />
        </mxCell>
        <mxCell id="OtpFn1KiQu8fELlNu37M-22" value="" style="edgeStyle=none;rounded=0;jumpStyle=none;html=1;shadow=0;labelBackgroundColor=none;startArrow=none;startFill=0;endArrow=classic;endFill=1;jettySize=auto;orthogonalLoop=1;strokeColor=#F08705;strokeWidth=3;fontFamily=Helvetica;fontSize=14;fontColor=#FFFFFF;spacing=5;" edge="1" parent="1" source="OtpFn1KiQu8fELlNu37M-20" target="OtpFn1KiQu8fELlNu37M-21">
          <mxGeometry relative="1" as="geometry" />
        </mxCell>
        <mxCell id="OtpFn1KiQu8fELlNu37M-23" value="Instruments" style="rounded=1;whiteSpace=wrap;html=1;shadow=0;labelBackgroundColor=none;strokeColor=none;strokeWidth=3;fillColor=#f5af58;fontFamily=Helvetica;fontSize=14;fontColor=#FFFFFF;align=center;spacing=5;arcSize=7;perimeterSpacing=2;" vertex="1" parent="1">
          <mxGeometry x="591" y="130" width="150" height="60" as="geometry" />
        </mxCell>
        <mxCell id="OtpFn1KiQu8fELlNu37M-24" value="" style="edgeStyle=none;rounded=0;jumpStyle=none;html=1;shadow=0;labelBackgroundColor=none;startArrow=none;startFill=0;endArrow=classic;endFill=1;jettySize=auto;orthogonalLoop=1;strokeColor=#F08705;strokeWidth=3;fontFamily=Helvetica;fontSize=14;fontColor=#FFFFFF;spacing=5;" edge="1" parent="1" source="OtpFn1KiQu8fELlNu37M-20" target="OtpFn1KiQu8fELlNu37M-23">
          <mxGeometry relative="1" as="geometry" />
        </mxCell>
        <mxCell id="OtpFn1KiQu8fELlNu37M-25" value="Segmentation" style="rounded=1;whiteSpace=wrap;html=1;shadow=0;labelBackgroundColor=none;strokeColor=none;strokeWidth=3;fillColor=#f5af58;fontFamily=Helvetica;fontSize=14;fontColor=#FFFFFF;align=center;spacing=5;arcSize=7;perimeterSpacing=2;" vertex="1" parent="1">
          <mxGeometry x="391" y="190" width="150" height="60" as="geometry" />
        </mxCell>
        <mxCell id="OtpFn1KiQu8fELlNu37M-26" value="" style="edgeStyle=none;rounded=0;jumpStyle=none;html=1;shadow=0;labelBackgroundColor=none;startArrow=none;startFill=0;endArrow=classic;endFill=1;jettySize=auto;orthogonalLoop=1;strokeColor=#F08705;strokeWidth=3;fontFamily=Helvetica;fontSize=14;fontColor=#FFFFFF;spacing=5;" edge="1" parent="1" source="OtpFn1KiQu8fELlNu37M-20" target="OtpFn1KiQu8fELlNu37M-25">
          <mxGeometry relative="1" as="geometry" />
        </mxCell>
        <mxCell id="OtpFn1KiQu8fELlNu37M-27" value="Communication" style="rounded=1;whiteSpace=wrap;html=1;shadow=0;labelBackgroundColor=none;strokeColor=none;strokeWidth=3;fillColor=#12aab5;fontFamily=Helvetica;fontSize=14;fontColor=#FFFFFF;align=center;spacing=5;fontStyle=1;arcSize=7;perimeterSpacing=2;" vertex="1" parent="1">
          <mxGeometry x="891" y="464.9999999999999" width="150" height="60" as="geometry" />
        </mxCell>
        <mxCell id="OtpFn1KiQu8fELlNu37M-28" value="Events" style="rounded=1;whiteSpace=wrap;html=1;shadow=0;labelBackgroundColor=none;strokeColor=none;strokeWidth=3;fillColor=#61c6ce;fontFamily=Helvetica;fontSize=14;fontColor=#FFFFFF;align=center;spacing=5;fontStyle=0;arcSize=7;perimeterSpacing=2;" vertex="1" parent="1">
          <mxGeometry x="971" y="604" width="150" height="60" as="geometry" />
        </mxCell>
        <mxCell id="OtpFn1KiQu8fELlNu37M-29" value="" style="edgeStyle=none;rounded=1;jumpStyle=none;html=1;shadow=0;labelBackgroundColor=none;startArrow=none;startFill=0;jettySize=auto;orthogonalLoop=1;strokeColor=#12AAB5;strokeWidth=3;fontFamily=Helvetica;fontSize=14;fontColor=#FFFFFF;spacing=5;fontStyle=1;fillColor=#b0e3e6;" edge="1" parent="1" source="OtpFn1KiQu8fELlNu37M-27" target="OtpFn1KiQu8fELlNu37M-28">
          <mxGeometry relative="1" as="geometry" />
        </mxCell>
        <mxCell id="OtpFn1KiQu8fELlNu37M-30" value="Media" style="rounded=1;whiteSpace=wrap;html=1;shadow=0;labelBackgroundColor=none;strokeColor=none;strokeWidth=3;fillColor=#61c6ce;fontFamily=Helvetica;fontSize=14;fontColor=#FFFFFF;align=center;spacing=5;fontStyle=0;arcSize=7;perimeterSpacing=2;" vertex="1" parent="1">
          <mxGeometry x="1101" y="514" width="150" height="60" as="geometry" />
        </mxCell>
        <mxCell id="OtpFn1KiQu8fELlNu37M-31" value="" style="edgeStyle=none;rounded=1;jumpStyle=none;html=1;shadow=0;labelBackgroundColor=none;startArrow=none;startFill=0;jettySize=auto;orthogonalLoop=1;strokeColor=#12AAB5;strokeWidth=3;fontFamily=Helvetica;fontSize=14;fontColor=#FFFFFF;spacing=5;fontStyle=1;fillColor=#b0e3e6;" edge="1" parent="1" source="OtpFn1KiQu8fELlNu37M-27" target="OtpFn1KiQu8fELlNu37M-30">
          <mxGeometry relative="1" as="geometry" />
        </mxCell>
        <mxCell id="OtpFn1KiQu8fELlNu37M-32" value="Sponsoring" style="rounded=1;whiteSpace=wrap;html=1;shadow=0;labelBackgroundColor=none;strokeColor=none;strokeWidth=3;fillColor=#61c6ce;fontFamily=Helvetica;fontSize=14;fontColor=#FFFFFF;align=center;spacing=5;fontStyle=0;arcSize=7;perimeterSpacing=2;" vertex="1" parent="1">
          <mxGeometry x="1101" y="404" width="150" height="60" as="geometry" />
        </mxCell>
        <mxCell id="OtpFn1KiQu8fELlNu37M-33" value="" style="edgeStyle=none;rounded=1;jumpStyle=none;html=1;shadow=0;labelBackgroundColor=none;startArrow=none;startFill=0;jettySize=auto;orthogonalLoop=1;strokeColor=#12AAB5;strokeWidth=3;fontFamily=Helvetica;fontSize=14;fontColor=#FFFFFF;spacing=5;fontStyle=1;fillColor=#b0e3e6;" edge="1" parent="1" source="OtpFn1KiQu8fELlNu37M-27" target="OtpFn1KiQu8fELlNu37M-32">
          <mxGeometry relative="1" as="geometry" />
        </mxCell>
        <mxCell id="OtpFn1KiQu8fELlNu37M-34" value="PR" style="rounded=1;whiteSpace=wrap;html=1;shadow=0;labelBackgroundColor=none;strokeColor=none;strokeWidth=3;fillColor=#61c6ce;fontFamily=Helvetica;fontSize=14;fontColor=#FFFFFF;align=center;spacing=5;fontStyle=0;arcSize=7;perimeterSpacing=2;" vertex="1" parent="1">
          <mxGeometry x="971" y="324" width="150" height="60" as="geometry" />
        </mxCell>
        <mxCell id="OtpFn1KiQu8fELlNu37M-35" value="" style="edgeStyle=none;rounded=1;jumpStyle=none;html=1;shadow=0;labelBackgroundColor=none;startArrow=none;startFill=0;jettySize=auto;orthogonalLoop=1;strokeColor=#12AAB5;strokeWidth=3;fontFamily=Helvetica;fontSize=14;fontColor=#FFFFFF;spacing=5;fontStyle=1;fillColor=#b0e3e6;" edge="1" parent="1" source="OtpFn1KiQu8fELlNu37M-27" target="OtpFn1KiQu8fELlNu37M-34">
          <mxGeometry relative="1" as="geometry" />
        </mxCell>
      </root>
    </mxGraphModel>
  </diagram>
</mxfile>
